<svg xmlns="http://www.w3.org/2000/svg" width="419.4948425292969" height="426.013916015625" viewBox="-103.00247192382812 -108.84233856201172 419.4948425292969 426.013916015625"><title>Neo4j Graph Visualization</title><desc>Created using Neo4j (http://www.neo4j.com/)</desc><g class="layer relationships"><g class="relationship" transform="translate(55.333043228179285 277.77511552645177) rotate(286.1224999109653)"><path class="outline" fill="#A5ABB6" stroke="none" d="M 25 0.5 L 59.186335762248405 0.5 L 59.186335762248405 -0.5 L 25 -0.5 Z M 115.4207107622484 0.5 L 149.6070465244968 0.5 L 149.6070465244968 3.5 L 156.6070465244968 0 L 149.6070465244968 -3.5 L 149.6070465244968 -0.5 L 115.4207107622484 -0.5 Z"/><text text-anchor="middle" pointer-events="none" font-size="8px" fill="#000000" x="87.3035232622484" y="3" font-family="sans-serif">PRESENT_IN</text></g><g class="relationship" transform="translate(125.45069144656925 228.81685931825066) rotate(261.08525679907814)"><path class="outline" fill="#A5ABB6" stroke="none" d="M 25 0.5 L 31.903246729184794 0.5 L 31.903246729184794 -0.5 L 25 -0.5 Z M 88.13762172918479 0.5 L 95.04086845836959 0.5 L 95.04086845836959 3.5 L 102.04086845836959 0 L 95.04086845836959 -3.5 L 95.04086845836959 -0.5 L 88.13762172918479 -0.5 Z"/><text text-anchor="middle" pointer-events="none" font-size="8px" fill="#000000" x="60.020434229184794" y="3" transform="rotate(180 60.020434229184794 0)" font-family="sans-serif">PRESENT_IN</text></g><g class="relationship" transform="translate(116.89214778625859 288.1715572511815) rotate(266.5550546730063)"><path class="outline" fill="#A5ABB6" stroke="none" d="M 25 0.5 L 60.98059468852475 0.5 L 60.98059468852475 -0.5 L 25 -0.5 Z M 117.21496968852475 0.5 L 153.1955643770495 0.5 L 153.1955643770495 3.5 L 160.1955643770495 0 L 153.1955643770495 -3.5 L 153.1955643770495 -0.5 L 117.21496968852475 -0.5 Z"/><text text-anchor="middle" pointer-events="none" font-size="8px" fill="#000000" x="89.09778218852475" y="3" transform="rotate(180 89.09778218852475 0)" font-family="sans-serif">PRESENT_IN</text></g><g class="relationship" transform="translate(186.661419446936 268.7712776014582) rotate(243.94491197104196)"><path class="outline" fill="#A5ABB6" stroke="none" d="M 25 0.5 L 60.47195160401496 0.5 L 60.47195160401496 -0.5 L 25 -0.5 Z M 116.70632660401496 0.5 L 152.17827820802992 0.5 L 152.17827820802992 3.5 L 159.17827820802992 0 L 152.17827820802992 -3.5 L 152.17827820802992 -0.5 L 116.70632660401496 -0.5 Z"/><text text-anchor="middle" pointer-events="none" font-size="8px" fill="#000000" x="88.58913910401496" y="3" transform="rotate(180 88.58913910401496 0)" font-family="sans-serif">PRESENT_IN</text></g><g class="relationship" transform="translate(243.78190165488064 222.76704990858397) rotate(220.87661261197798)"><path class="outline" fill="#A5ABB6" stroke="none" d="M 25 0.5 L 59.65002315359078 0.5 L 59.65002315359078 -0.5 L 25 -0.5 Z M 115.88439815359078 0.5 L 150.53442130718156 0.5 L 150.53442130718156 3.5 L 157.53442130718156 0 L 150.53442130718156 -3.5 L 150.53442130718156 -0.5 L 115.88439815359078 -0.5 Z"/><text text-anchor="middle" pointer-events="none" font-size="8px" fill="#000000" x="87.76721065359078" y="3" transform="rotate(180 87.76721065359078 0)" font-family="sans-serif">PRESENT_IN</text></g><g class="relationship" transform="translate(185.5118716963403 208.45531361713444) rotate(232.8211412935127)"><path class="outline" fill="#A5ABB6" stroke="none" d="M 25 0.5 L 34.36604593871776 0.5 L 34.36604593871776 -0.5 L 25 -0.5 Z M 90.60042093871776 0.5 L 99.96646687743552 0.5 L 99.96646687743552 3.5 L 106.96646687743552 0 L 99.96646687743552 -3.5 L 99.96646687743552 -0.5 L 90.60042093871776 -0.5 Z"/><text text-anchor="middle" pointer-events="none" font-size="8px" fill="#000000" x="62.48323343871776" y="3" transform="rotate(180 62.48323343871776 0)" font-family="sans-serif">PRESENT_IN</text></g><g class="relationship" transform="translate(276.7178554814511 163.74898350834505) rotate(199.47031946329912)"><path class="outline" fill="#A5ABB6" stroke="none" d="M 25 0.5 L 59.04435863241086 0.5 L 59.04435863241086 -0.5 L 25 -0.5 Z M 115.27873363241086 0.5 L 149.32309226482172 0.5 L 149.32309226482172 3.5 L 156.32309226482172 0 L 149.32309226482172 -3.5 L 149.32309226482172 -0.5 L 115.27873363241086 -0.5 Z"/><text text-anchor="middle" pointer-events="none" font-size="8px" fill="#000000" x="87.16154613241086" y="3" transform="rotate(180 87.16154613241086 0)" font-family="sans-serif">PRESENT_IN</text></g><g class="relationship" transform="translate(230.1261606947236 83.52287738619069) rotate(530.9592357766472)"><path class="outline" fill="#A5ABB6" stroke="none" d="M 25 0.5 L 31.346172741410136 0.5 L 31.346172741410136 -0.5 L 25 -0.5 Z M 87.58054774141013 0.5 L 93.92672048282027 0.5 L 93.92672048282027 3.5 L 100.92672048282027 0 L 93.92672048282027 -3.5 L 93.92672048282027 -0.5 L 87.58054774141013 -0.5 Z"/><text text-anchor="middle" pointer-events="none" font-size="8px" fill="#000000" x="59.463360241410136" y="3" transform="rotate(180 59.463360241410136 0)" font-family="sans-serif">PRESENT_IN</text></g><g class="relationship" transform="translate(287.4923377219739 101.06529446886027) rotate(539.292117754348)"><path class="outline" fill="#A5ABB6" stroke="none" d="M 25 0.5 L 59.253989682070014 0.5 L 59.253989682070014 -0.5 L 25 -0.5 Z M 115.48836468207001 0.5 L 149.74235436414003 0.5 L 149.74235436414003 3.5 L 156.74235436414003 0 L 149.74235436414003 -3.5 L 149.74235436414003 -0.5 L 115.48836468207001 -0.5 Z"/><text text-anchor="middle" pointer-events="none" font-size="8px" fill="#000000" x="87.37117718207001" y="3" transform="rotate(180 87.37117718207001 0)" font-family="sans-serif">PRESENT_IN</text></g><g class="relationship" transform="translate(217.68523082879784 153.11462715146448) rotate(203.98862511513659)"><path class="outline" fill="#A5ABB6" stroke="none" d="M 25 0.5 L 29.63399935403811 0.5 L 29.63399935403811 -0.5 L 25 -0.5 Z M 85.86837435403811 0.5 L 90.50237370807622 0.5 L 90.50237370807622 3.5 L 97.50237370807622 0 L 90.50237370807622 -3.5 L 90.50237370807622 -0.5 L 85.86837435403811 -0.5 Z"/><text text-anchor="middle" pointer-events="none" font-size="8px" fill="#000000" x="57.75118685403811" y="3" transform="rotate(180 57.75118685403811 0)" font-family="sans-serif">PRESENT_IN</text></g><g class="relationship" transform="translate(269.89877145115895 35.524151617269666) rotate(517.5597418100576)"><path class="outline" fill="#A5ABB6" stroke="none" d="M 25 0.5 L 57.17368947975734 0.5 L 57.17368947975734 -0.5 L 25 -0.5 Z M 113.40806447975734 0.5 L 145.58175395951469 0.5 L 145.58175395951469 3.5 L 152.58175395951469 0 L 145.58175395951469 -3.5 L 145.58175395951469 -0.5 L 113.40806447975734 -0.5 Z"/><text text-anchor="middle" pointer-events="none" font-size="8px" fill="#000000" x="85.29087697975734" y="3" transform="rotate(180 85.29087697975734 0)" font-family="sans-serif">PRESENT_IN</text></g><g class="relationship" transform="translate(243.3187029979373 -19.40051670123841) rotate(498.26420074365507)"><path class="outline" fill="#A5ABB6" stroke="none" d="M 25 0.5 L 60.550275362602676 0.5 L 60.550275362602676 -0.5 L 25 -0.5 Z M 116.78465036260268 0.5 L 152.33492572520535 0.5 L 152.33492572520535 3.5 L 159.33492572520535 0 L 152.33492572520535 -3.5 L 152.33492572520535 -0.5 L 116.78465036260268 -0.5 Z"/><text text-anchor="middle" pointer-events="none" font-size="8px" fill="#000000" x="88.66746286260268" y="3" transform="rotate(180 88.66746286260268 0)" font-family="sans-serif">PRESENT_IN</text></g><g class="relationship" transform="translate(193.4850231402403 13.98960764564577) rotate(494.4822533532024)"><path class="outline" fill="#A5ABB6" stroke="none" d="M 25 0.5 L 30.979239342256562 0.5 L 30.979239342256562 -0.5 L 25 -0.5 Z M 87.21361434225656 0.5 L 93.19285368451312 0.5 L 93.19285368451312 3.5 L 100.19285368451312 0 L 93.19285368451312 -3.5 L 93.19285368451312 -0.5 L 87.21361434225656 -0.5 Z"/><text text-anchor="middle" pointer-events="none" font-size="8px" fill="#000000" x="59.09642684225656" y="3" transform="rotate(180 59.09642684225656 0)" font-family="sans-serif">PRESENT_IN</text></g><g class="relationship" transform="translate(186.36214250936553 -57.4345436352482) rotate(476.6293723927313)"><path class="outline" fill="#A5ABB6" stroke="none" d="M 25 0.5 L 58.292626586236224 0.5 L 58.292626586236224 -0.5 L 25 -0.5 Z M 114.52700158623622 0.5 L 147.81962817247245 0.5 L 147.81962817247245 3.5 L 154.81962817247245 0 L 147.81962817247245 -3.5 L 147.81962817247245 -0.5 L 114.52700158623622 -0.5 Z"/><text text-anchor="middle" pointer-events="none" font-size="8px" fill="#000000" x="86.40981408623622" y="3" transform="rotate(180 86.40981408623622 0)" font-family="sans-serif">PRESENT_IN</text></g><g class="relationship" transform="translate(133.0743273662339 -22.06409728700728) rotate(462.2888136805147)"><path class="outline" fill="#A5ABB6" stroke="none" d="M 25 0.5 L 32.540210943004666 0.5 L 32.540210943004666 -0.5 L 25 -0.5 Z M 88.77458594300467 0.5 L 96.31479688600933 0.5 L 96.31479688600933 3.5 L 103.31479688600933 0 L 96.31479688600933 -3.5 L 96.31479688600933 -0.5 L 88.77458594300467 -0.5 Z"/><text text-anchor="middle" pointer-events="none" font-size="8px" fill="#000000" x="60.657398443004666" y="3" transform="rotate(180 60.657398443004666 0)" font-family="sans-serif">PRESENT_IN</text></g><g class="relationship" transform="translate(117.01101346100677 -79.84233707314432) rotate(453.5140381996065)"><path class="outline" fill="#A5ABB6" stroke="none" d="M 25 0.5 L 60.13180729655454 0.5 L 60.13180729655454 -0.5 L 25 -0.5 Z M 116.36618229655454 0.5 L 151.49798959310908 0.5 L 151.49798959310908 3.5 L 158.49798959310908 0 L 151.49798959310908 -3.5 L 151.49798959310908 -0.5 L 116.36618229655454 -0.5 Z"/><text text-anchor="middle" pointer-events="none" font-size="8px" fill="#000000" x="88.24899479655454" y="3" transform="rotate(180 88.24899479655454 0)" font-family="sans-serif">PRESENT_IN</text></g><g class="relationship" transform="translate(54.450140973078675 -9.342066235393757) rotate(425.51056462562343)"><path class="outline" fill="#A5ABB6" stroke="none" d="M 25 0.5 L 30.277339167151183 0.5 L 30.277339167151183 -0.5 L 25 -0.5 Z M 86.51171416715118 0.5 L 91.78905333430237 0.5 L 91.78905333430237 3.5 L 98.78905333430237 0 L 91.78905333430237 -3.5 L 91.78905333430237 -0.5 L 86.51171416715118 -0.5 Z"/><text text-anchor="middle" pointer-events="none" font-size="8px" fill="#000000" x="58.39452666715118" y="3" font-family="sans-serif">PRESENT_IN</text></g><g class="relationship" transform="translate(-2.6832880073348604 -39.57093477252151) rotate(412.8014953277658)"><path class="outline" fill="#A5ABB6" stroke="none" d="M 25 0.5 L 58.071060721580835 0.5 L 58.071060721580835 -0.5 L 25 -0.5 Z M 114.30543572158084 0.5 L 147.37649644316167 0.5 L 147.37649644316167 3.5 L 154.37649644316167 0 L 147.37649644316167 -3.5 L 147.37649644316167 -0.5 L 114.30543572158084 -0.5 Z"/><text text-anchor="middle" pointer-events="none" font-size="8px" fill="#000000" x="86.18824822158084" y="3" font-family="sans-serif">PRESENT_IN</text></g><g class="relationship" transform="translate(57.01129579289584 -69.27395030999523) rotate(434.2258100285767)"><path class="outline" fill="#A5ABB6" stroke="none" d="M 25 0.5 L 58.05200075890181 0.5 L 58.05200075890181 -0.5 L 25 -0.5 Z M 114.28637575890181 0.5 L 147.33837651780362 0.5 L 147.33837651780362 3.5 L 154.33837651780362 0 L 147.33837651780362 -3.5 L 147.33837651780362 -0.5 L 114.28637575890181 -0.5 Z"/><text text-anchor="middle" pointer-events="none" font-size="8px" fill="#000000" x="86.16918825890181" y="3" font-family="sans-serif">PRESENT_IN</text></g><g class="relationship" transform="translate(1.0550675649364982 34.02716999722419) rotate(393.4917186877335)"><path class="outline" fill="#A5ABB6" stroke="none" d="M 25 0.5 L 31.16045461247333 0.5 L 31.16045461247333 -0.5 L 25 -0.5 Z M 87.39482961247333 0.5 L 93.55528422494666 0.5 L 93.55528422494666 3.5 L 100.55528422494666 0 L 93.55528422494666 -3.5 L 93.55528422494666 -0.5 L 87.39482961247333 -0.5 Z"/><text text-anchor="middle" pointer-events="none" font-size="8px" fill="#000000" x="59.27764211247333" y="3" font-family="sans-serif">PRESENT_IN</text></g><g class="relationship" transform="translate(-50.86275132369792 3.992514222326428) rotate(392.3790962914602)"><path class="outline" fill="#A5ABB6" stroke="none" d="M 25 0.5 L 61.113583991121004 0.5 L 61.113583991121004 -0.5 L 25 -0.5 Z M 117.347958991121 0.5 L 153.461542982242 0.5 L 153.461542982242 3.5 L 160.461542982242 0 L 153.461542982242 -3.5 L 153.461542982242 -0.5 L 117.347958991121 -0.5 Z"/><text text-anchor="middle" pointer-events="none" font-size="8px" fill="#000000" x="89.230771491121" y="3" font-family="sans-serif">PRESENT_IN</text></g><g class="relationship" transform="translate(-2.2640696359604573 167.89127975230232) rotate(329.1284139302407)"><path class="outline" fill="#A5ABB6" stroke="none" d="M 25 0.5 L 31.31271619781544 0.5 L 31.31271619781544 -0.5 L 25 -0.5 Z M 87.54709119781543 0.5 L 93.85980739563088 0.5 L 93.85980739563088 3.5 L 100.85980739563088 0 L 93.85980739563088 -3.5 L 93.85980739563088 -0.5 L 87.54709119781543 -0.5 Z"/><text text-anchor="middle" pointer-events="none" font-size="8px" fill="#000000" x="59.42990369781544" y="3" font-family="sans-serif">PRESENT_IN</text></g><g class="relationship" transform="translate(-74.00247293215129 65.28528466145353) rotate(371.94352575931396)"><path class="outline" fill="#A5ABB6" stroke="none" d="M 25 0.5 L 60.25481595730936 0.5 L 60.25481595730936 -0.5 L 25 -0.5 Z M 116.48919095730936 0.5 L 151.74400691461872 0.5 L 151.74400691461872 3.5 L 158.74400691461872 0 L 151.74400691461872 -3.5 L 151.74400691461872 -0.5 L 116.48919095730936 -0.5 Z"/><text text-anchor="middle" pointer-events="none" font-size="8px" fill="#000000" x="88.37200345730936" y="3" font-family="sans-serif">PRESENT_IN</text></g><g class="relationship" transform="translate(-26.114512936869037 101.39418834400705) rotate(360.832562277535)"><path class="outline" fill="#A5ABB6" stroke="none" d="M 25 0.5 L 34.328958077261774 0.5 L 34.328958077261774 -0.5 L 25 -0.5 Z M 90.56333307726177 0.5 L 99.89229115452355 0.5 L 99.89229115452355 3.5 L 106.89229115452355 0 L 99.89229115452355 -3.5 L 99.89229115452355 -0.5 L 90.56333307726177 -0.5 Z"/><text text-anchor="middle" pointer-events="none" font-size="8px" fill="#000000" x="62.446145577261774" y="3" font-family="sans-serif">PRESENT_IN</text></g><g class="relationship" transform="translate(-72.9902183831021 138.82059939441478) rotate(348.7643188712141)"><path class="outline" fill="#A5ABB6" stroke="none" d="M 25 0.5 L 59.50632141387608 0.5 L 59.50632141387608 -0.5 L 25 -0.5 Z M 115.74069641387608 0.5 L 150.24701782775216 0.5 L 150.24701782775216 3.5 L 157.24701782775216 0 L 150.24701782775216 -3.5 L 150.24701782775216 -0.5 L 115.74069641387608 -0.5 Z"/><text text-anchor="middle" pointer-events="none" font-size="8px" fill="#000000" x="87.62350891387608" y="3" font-family="sans-serif">PRESENT_IN</text></g><g class="relationship" transform="translate(-4.0893116497317115 245.20521699216846) rotate(307.7466288715519)"><path class="outline" fill="#A5ABB6" stroke="none" d="M 25 0.5 L 58.10709647687679 0.5 L 58.10709647687679 -0.5 L 25 -0.5 Z M 114.34147147687679 0.5 L 147.44856795375358 0.5 L 147.44856795375358 3.5 L 154.44856795375358 0 L 147.44856795375358 -3.5 L 147.44856795375358 -0.5 L 114.34147147687679 -0.5 Z"/><text text-anchor="middle" pointer-events="none" font-size="8px" fill="#000000" x="86.22428397687679" y="3" font-family="sans-serif">PRESENT_IN</text></g><g class="relationship" transform="translate(-51.8825531219062 201.57935389907558) rotate(328.0626955750076)"><path class="outline" fill="#A5ABB6" stroke="none" d="M 25 0.5 L 61.265977696661224 0.5 L 61.265977696661224 -0.5 L 25 -0.5 Z M 117.50035269666122 0.5 L 153.76633039332245 0.5 L 153.76633039332245 3.5 L 160.76633039332245 0 L 153.76633039332245 -3.5 L 153.76633039332245 -0.5 L 117.50035269666122 -0.5 Z"/><text text-anchor="middle" pointer-events="none" font-size="8px" fill="#000000" x="89.38316519666122" y="3" font-family="sans-serif">PRESENT_IN</text></g><g class="relationship" transform="translate(51.55402881240576 217.90804046277262) rotate(295.31629643780917)"><path class="outline" fill="#A5ABB6" stroke="none" d="M 25 0.5 L 31.769066886413277 0.5 L 31.769066886413277 -0.5 L 25 -0.5 Z M 88.00344188641327 0.5 L 94.77250877282655 0.5 L 94.77250877282655 3.5 L 101.77250877282655 0 L 94.77250877282655 -3.5 L 94.77250877282655 -0.5 L 88.00344188641327 -0.5 Z"/><text text-anchor="middle" pointer-events="none" font-size="8px" fill="#000000" x="59.88625438641328" y="3" font-family="sans-serif">PRESENT_IN</text></g></g><g class="layer nodes"><g class="node" transform="translate(55.333043228179285,277.77511552645177)"><circle class="outline" cx="0" cy="0" r="25" fill="#F16667" stroke="#eb2728" stroke-width="2px"/><text text-anchor="middle" pointer-events="none" font-family="sans-serif" dy="1.5625" font-size="25" fill="#FFFFFF"/><text text-anchor="middle" pointer-events="none" x="0" y="5" font-size="10px" fill="#FFFFFF" font-family="sans-serif"> Dogon</text></g><g class="node" transform="translate(105.76385402672888,103.31064157960022)"><circle class="outline" cx="0" cy="0" r="25" fill="#D9C8AE" stroke="#c0a378" stroke-width="2px"/><text text-anchor="middle" pointer-events="none" font-family="sans-serif" dy="1.5625" font-size="25" fill="#2A2C34"/><text text-anchor="middle" pointer-events="none" x="0" y="5" font-size="10px" fill="#2A2C34" font-family="sans-serif"> Africa</text></g><g class="node" transform="translate(125.45069144656925,228.81685931825066)"><circle class="outline" cx="0" cy="0" r="25" fill="#F16667" stroke="#eb2728" stroke-width="2px"/><text text-anchor="middle" pointer-events="none" font-family="sans-serif" dy="1.5625" font-size="25" fill="#FFFFFF"/><text text-anchor="middle" pointer-events="none" x="0" y="5" font-size="10px" fill="#FFFFFF" font-family="sans-serif"> Berta</text></g><g class="node" transform="translate(116.89214778625859,288.1715572511815)"><circle class="outline" cx="0" cy="0" r="25" fill="#F16667" stroke="#eb2728" stroke-width="2px"/><text text-anchor="middle" pointer-events="none" font-family="sans-serif" dy="1.5625" font-size="25" fill="#FFFFFF"/><text text-anchor="middle" pointer-events="none" x="0" y="5" font-size="10px" fill="#FFFFFF" font-family="sans-serif"> Khoe-K…</text></g><g class="node" transform="translate(186.661419446936,268.7712776014582)"><circle class="outline" cx="0" cy="0" r="25" fill="#F16667" stroke="#eb2728" stroke-width="2px"/><text text-anchor="middle" pointer-events="none" font-family="sans-serif" dy="1.5625" font-size="25" fill="#FFFFFF"/><text text-anchor="middle" pointer-events="none" x="0" y="5" font-size="10px" fill="#FFFFFF" font-family="sans-serif"> Gumuz</text></g><g class="node" transform="translate(243.78190165488064,222.76704990858397)"><circle class="outline" cx="0" cy="0" r="25" fill="#F16667" stroke="#eb2728" stroke-width="2px"/><text text-anchor="middle" pointer-events="none" font-family="sans-serif" dy="1.5625" font-size="25" fill="#FFFFFF"/><text text-anchor="middle" pointer-events="none" x="0" y="5" font-size="10px" fill="#FFFFFF" font-family="sans-serif"> Kadu</text></g><g class="node" transform="translate(185.5118716963403,208.45531361713444)"><circle class="outline" cx="0" cy="0" r="25" fill="#F16667" stroke="#eb2728" stroke-width="2px"/><text text-anchor="middle" pointer-events="none" font-family="sans-serif" dy="1.5625" font-size="25" fill="#FFFFFF"/><text text-anchor="middle" pointer-events="none" x="0" y="5" font-size="10px" fill="#FFFFFF" font-family="sans-serif"> Maban</text></g><g class="node" transform="translate(276.7178554814511,163.74898350834505)"><circle class="outline" cx="0" cy="0" r="25" fill="#F16667" stroke="#eb2728" stroke-width="2px"/><text text-anchor="middle" pointer-events="none" font-family="sans-serif" dy="1.5625" font-size="25" fill="#FFFFFF"/><text text-anchor="middle" pointer-events="none" x="0" y="5" font-size="10px" fill="#FFFFFF" font-family="sans-serif"> Shabo</text></g><g class="node" transform="translate(230.1261606947236,83.52287738619069)"><circle class="outline" cx="0" cy="0" r="25" fill="#F16667" stroke="#eb2728" stroke-width="2px"/><text text-anchor="middle" pointer-events="none" font-family="sans-serif" dy="1.5625" font-size="25" fill="#FFFFFF"/><text text-anchor="middle" pointer-events="none" x="0" y="5" font-size="10px" fill="#FFFFFF" font-family="sans-serif"> Bangime</text></g><g class="node" transform="translate(287.4923377219739,101.06529446886027)"><circle class="outline" cx="0" cy="0" r="25" fill="#F16667" stroke="#eb2728" stroke-width="2px"/><text text-anchor="middle" pointer-events="none" font-family="sans-serif" dy="1.5625" font-size="25" fill="#FFFFFF"/><text text-anchor="middle" pointer-events="none" x="0" y="5" font-size="10px" fill="#FFFFFF" font-family="sans-serif"> Fur</text></g><g class="node" transform="translate(217.68523082879784,153.11462715146448)"><circle class="outline" cx="0" cy="0" r="25" fill="#F16667" stroke="#eb2728" stroke-width="2px"/><text text-anchor="middle" pointer-events="none" font-family="sans-serif" dy="1.5625" font-size="25" fill="#FFFFFF"/><text text-anchor="middle" pointer-events="none" x="0" y="5" font-size="10px" fill="#FFFFFF" font-family="sans-serif"> Niger-C…</text></g><g class="node" transform="translate(269.89877145115895,35.524151617269666)"><circle class="outline" cx="0" cy="0" r="25" fill="#F16667" stroke="#eb2728" stroke-width="2px"/><text text-anchor="middle" pointer-events="none" font-family="sans-serif" dy="1.5625" font-size="25" fill="#FFFFFF"/><text text-anchor="middle" pointer-events="none" x="0" y="5" font-size="10px" fill="#FFFFFF" font-family="sans-serif"> Kunama</text></g><g class="node" transform="translate(243.3187029979373,-19.40051670123841)"><circle class="outline" cx="0" cy="0" r="25" fill="#F16667" stroke="#eb2728" stroke-width="2px"/><text text-anchor="middle" pointer-events="none" font-family="sans-serif" dy="1.5625" font-size="25" fill="#FFFFFF"/><text text-anchor="middle" pointer-events="none" x="0" y="5" font-size="10px" fill="#FFFFFF" font-family="sans-serif"> Saharan</text></g><g class="node" transform="translate(193.4850231402403,13.98960764564577)"><circle class="outline" cx="0" cy="0" r="25" fill="#F16667" stroke="#eb2728" stroke-width="2px"/><text text-anchor="middle" pointer-events="none" font-family="sans-serif" dy="1.5625" font-size="25" fill="#FFFFFF"/><text text-anchor="middle" pointer-events="none" x="0" y="5" font-size="10px" fill="#FFFFFF" font-family="sans-serif"> Sandawe</text></g><g class="node" transform="translate(186.36214250936553,-57.4345436352482)"><circle class="outline" cx="0" cy="0" r="25" fill="#F16667" stroke="#eb2728" stroke-width="2px"/><text text-anchor="middle" pointer-events="none" font-family="sans-serif" dy="1.5625" font-size="25" fill="#FFFFFF"/><text text-anchor="middle" pointer-events="none" x="0" y="5" font-size="10px" fill="#FFFFFF" font-family="sans-serif"> Laal</text></g><g class="node" transform="translate(133.0743273662339,-22.06409728700728)"><circle class="outline" cx="0" cy="0" r="25" fill="#F16667" stroke="#eb2728" stroke-width="2px"/><text text-anchor="middle" pointer-events="none" font-family="sans-serif" dy="1.5625" font-size="25" fill="#FFFFFF"/><text text-anchor="middle" pointer-events="none" x="0" y="5" font-size="10px" fill="#FFFFFF" font-family="sans-serif"> Koman</text></g><g class="node" transform="translate(117.01101346100677,-79.84233707314432)"><circle class="outline" cx="0" cy="0" r="25" fill="#F16667" stroke="#eb2728" stroke-width="2px"/><text text-anchor="middle" pointer-events="none" font-family="sans-serif" dy="1.5625" font-size="25" fill="#FFFFFF"/><text text-anchor="middle" pointer-events="none" x="0" y="5" font-size="10px" fill="#FFFFFF" font-family="sans-serif"> Hadza</text></g><g class="node" transform="translate(54.450140973078675,-9.342066235393757)"><circle class="outline" cx="0" cy="0" r="25" fill="#F16667" stroke="#eb2728" stroke-width="2px"/><text text-anchor="middle" pointer-events="none" font-family="sans-serif" dy="1.5625" font-size="25" fill="#FFFFFF"/><text text-anchor="middle" pointer-events="none" x="0" y="5" font-size="10px" fill="#FFFFFF" font-family="sans-serif"> other</text></g><g class="node" transform="translate(-2.6832880073348604,-39.57093477252151)"><circle class="outline" cx="0" cy="0" r="25" fill="#F16667" stroke="#eb2728" stroke-width="2px"/><text text-anchor="middle" pointer-events="none" font-family="sans-serif" dy="1.5625" font-size="25" fill="#FFFFFF"/><text text-anchor="middle" pointer-events="none" font-family="sans-serif" dy="1.5625" font-size="25" fill="#FFFFFF"/><text text-anchor="middle" pointer-events="none" x="0" y="0" font-size="10px" fill="#FFFFFF" font-family="sans-serif"> Eastern</text><text text-anchor="middle" pointer-events="none" x="0" y="10" font-size="10px" fill="#FFFFFF" font-family="sans-serif"> Sudanic</text></g><g class="node" transform="translate(57.01129579289584,-69.27395030999523)"><circle class="outline" cx="0" cy="0" r="25" fill="#F16667" stroke="#eb2728" stroke-width="2px"/><text text-anchor="middle" pointer-events="none" font-family="sans-serif" dy="1.5625" font-size="25" fill="#FFFFFF"/><text text-anchor="middle" pointer-events="none" x="0" y="5" font-size="10px" fill="#FFFFFF" font-family="sans-serif"> Songhay</text></g><g class="node" transform="translate(1.0550675649364982,34.02716999722419)"><circle class="outline" cx="0" cy="0" r="25" fill="#F16667" stroke="#eb2728" stroke-width="2px"/><text text-anchor="middle" pointer-events="none" font-family="sans-serif" dy="1.5625" font-size="25" fill="#FFFFFF"/><text text-anchor="middle" pointer-events="none" x="0" y="5" font-size="10px" fill="#FFFFFF" font-family="sans-serif"> Indo-Eur…</text></g><g class="node" transform="translate(-50.86275132369792,3.992514222326428)"><circle class="outline" cx="0" cy="0" r="25" fill="#F16667" stroke="#eb2728" stroke-width="2px"/><text text-anchor="middle" pointer-events="none" font-family="sans-serif" dy="1.5625" font-size="25" fill="#FFFFFF"/><text text-anchor="middle" pointer-events="none" x="0" y="5" font-size="10px" fill="#FFFFFF" font-family="sans-serif"> Tu</text></g><g class="node" transform="translate(-2.2640696359604573,167.89127975230232)"><circle class="outline" cx="0" cy="0" r="25" fill="#F16667" stroke="#eb2728" stroke-width="2px"/><text text-anchor="middle" pointer-events="none" font-family="sans-serif" dy="1.5625" font-size="25" fill="#FFFFFF"/><text text-anchor="middle" pointer-events="none" x="0" y="5" font-size="10px" fill="#FFFFFF" font-family="sans-serif"> Austron…</text></g><g class="node" transform="translate(-74.00247293215129,65.28528466145353)"><circle class="outline" cx="0" cy="0" r="25" fill="#F16667" stroke="#eb2728" stroke-width="2px"/><text text-anchor="middle" pointer-events="none" font-family="sans-serif" dy="1.5625" font-size="25" fill="#FFFFFF"/><text text-anchor="middle" pointer-events="none" x="0" y="5" font-size="10px" fill="#FFFFFF" font-family="sans-serif"> Kxa</text></g><g class="node" transform="translate(-26.114512936869037,101.39418834400705)"><circle class="outline" cx="0" cy="0" r="25" fill="#F16667" stroke="#eb2728" stroke-width="2px"/><text text-anchor="middle" pointer-events="none" font-family="sans-serif" dy="1.5625" font-size="25" fill="#FFFFFF"/><text text-anchor="middle" pointer-events="none" x="0" y="5" font-size="10px" fill="#FFFFFF" font-family="sans-serif"> Mande</text></g><g class="node" transform="translate(-72.9902183831021,138.82059939441478)"><circle class="outline" cx="0" cy="0" r="25" fill="#F16667" stroke="#eb2728" stroke-width="2px"/><text text-anchor="middle" pointer-events="none" font-family="sans-serif" dy="1.5625" font-size="25" fill="#FFFFFF"/><text text-anchor="middle" pointer-events="none" x="0" y="5" font-size="10px" fill="#FFFFFF" font-family="sans-serif"> Afro-Asi…</text></g><g class="node" transform="translate(-4.0893116497317115,245.20521699216846)"><circle class="outline" cx="0" cy="0" r="25" fill="#F16667" stroke="#eb2728" stroke-width="2px"/><text text-anchor="middle" pointer-events="none" font-family="sans-serif" dy="1.5625" font-size="25" fill="#FFFFFF"/><text text-anchor="middle" pointer-events="none" font-family="sans-serif" dy="1.5625" font-size="25" fill="#FFFFFF"/><text text-anchor="middle" pointer-events="none" x="0" y="0" font-size="10px" fill="#FFFFFF" font-family="sans-serif"> Central</text><text text-anchor="middle" pointer-events="none" x="0" y="10" font-size="10px" fill="#FFFFFF" font-family="sans-serif"> Sudanic</text></g><g class="node" transform="translate(-51.8825531219062,201.57935389907558)"><circle class="outline" cx="0" cy="0" r="25" fill="#F16667" stroke="#eb2728" stroke-width="2px"/><text text-anchor="middle" pointer-events="none" font-family="sans-serif" dy="1.5625" font-size="25" fill="#FFFFFF"/><text text-anchor="middle" pointer-events="none" x="0" y="5" font-size="10px" fill="#FFFFFF" font-family="sans-serif"> Ijoid</text></g><g class="node" transform="translate(51.55402881240576,217.90804046277262)"><circle class="outline" cx="0" cy="0" r="25" fill="#F16667" stroke="#eb2728" stroke-width="2px"/><text text-anchor="middle" pointer-events="none" font-family="sans-serif" dy="1.5625" font-size="25" fill="#FFFFFF"/><text text-anchor="middle" pointer-events="none" x="0" y="5" font-size="10px" fill="#FFFFFF" font-family="sans-serif"> Kordofa…</text></g></g></svg>