<svg xmlns="http://www.w3.org/2000/svg" width="534.4063110351562" height="355.08685302734375" viewBox="-234.56813049316406 -94.825439453125 534.4063110351562 355.08685302734375"><title>Neo4j Graph Visualization</title><desc>Created using Neo4j (http://www.neo4j.com/)</desc><g class="layer relationships"><g class="relationship" transform="translate(62.38771057128906 64.22245620109764) rotate(434.4608460809491)"><path class="outline" fill="#A5ABB6" stroke="none" d="M 25 0.5 L 45.621082217191 0.5 L 45.621082217191 -0.5 L 25 -0.5 Z M 87.777332217191 0.5 L 108.398414434382 0.5 L 108.398414434382 3.5 L 115.398414434382 0 L 108.398414434382 -3.5 L 108.398414434382 -0.5 L 87.777332217191 -0.5 Z"/><text text-anchor="middle" pointer-events="none" font-size="8px" fill="#000000" x="66.699207217191" y="3" font-family="sans-serif">PART_OF</text></g><g class="relationship" transform="translate(62.38771057128906 64.22245620109764) rotate(202.19246179581853)"><path class="outline" fill="#A5ABB6" stroke="none" d="M 25 0.5 L 115.30054869195206 0.5 L 115.30054869195206 -0.5 L 25 -0.5 Z M 167.09351744195206 0.5 L 257.3940661339041 0.5 L 257.3940661339041 3.5 L 264.3940661339041 0 L 257.3940661339041 -3.5 L 257.3940661339041 -0.5 L 167.09351744195206 -0.5 Z"/><text text-anchor="middle" pointer-events="none" font-size="8px" fill="#000000" x="141.19703306695206" y="3" transform="rotate(180 141.19703306695206 0)" font-family="sans-serif">SPOKEN_IN</text></g><g class="relationship" transform="translate(155.47418846885876 77.49031229305484) rotate(474.4518368465561)"><path class="outline" fill="#A5ABB6" stroke="none" d="M 25 0.5 L 42.43131221559298 0.5 L 42.43131221559298 -0.5 L 25 -0.5 Z M 84.58756221559298 0.5 L 102.01887443118596 0.5 L 102.01887443118596 3.5 L 109.01887443118596 0 L 102.01887443118596 -3.5 L 102.01887443118596 -0.5 L 84.58756221559298 -0.5 Z"/><text text-anchor="middle" pointer-events="none" font-size="8px" fill="#000000" x="63.50943721559298" y="3" transform="rotate(180 63.50943721559298 0)" font-family="sans-serif">PART_OF</text></g><g class="relationship" transform="translate(-106.23169001750152 198.26867387743536) rotate(360.33902234306146)"><path class="outline" fill="#A5ABB6" stroke="none" d="M 25 0.5 L 78.53952515803002 0.5 L 78.53952515803002 -0.5 L 25 -0.5 Z M 120.69577515803002 0.5 L 174.23530031606003 0.5 L 174.23530031606003 3.5 L 181.23530031606003 0 L 174.23530031606003 -3.5 L 174.23530031606003 -0.5 L 120.69577515803002 -0.5 Z"/><text text-anchor="middle" pointer-events="none" font-size="8px" fill="#000000" x="99.61765015803002" y="3" font-family="sans-serif">PART_OF</text></g><g class="relationship" transform="translate(-52.31114080642014 172.27703451333878) rotate(370.1296003439829)"><path class="outline" fill="#A5ABB6" stroke="none" d="M 25 0.5 L 52.783320805342015 0.5 L 52.783320805342015 -0.5 L 25 -0.5 Z M 94.93957080534202 0.5 L 122.72289161068403 0.5 L 122.72289161068403 3.5 L 129.72289161068403 0 L 122.72289161068403 -3.5 L 122.72289161068403 -0.5 L 94.93957080534202 -0.5 Z"/><text text-anchor="middle" pointer-events="none" font-size="8px" fill="#000000" x="73.86144580534202" y="3" font-family="sans-serif">PART_OF</text></g><g class="relationship" transform="translate(1.573171015069269 146.11658569656083) rotate(388.4689605245622)"><path class="outline" fill="#A5ABB6" stroke="none" d="M 25 0.5 L 31.40502502785241 0.5 L 31.40502502785241 -0.5 L 25 -0.5 Z M 73.56127502785242 0.5 L 79.96630005570482 0.5 L 79.96630005570482 3.5 L 86.96630005570482 0 L 79.96630005570482 -3.5 L 79.96630005570482 -0.5 L 73.56127502785242 -0.5 Z"/><text text-anchor="middle" pointer-events="none" font-size="8px" fill="#000000" x="52.48315002785241" y="3" font-family="sans-serif">PART_OF</text></g><g class="relationship" transform="translate(-97.4759533575968 79.35840058796066) rotate(391.31340923107086)"><path class="outline" fill="#A5ABB6" stroke="none" d="M 25 0.5 L 90.99447824927019 0.5 L 90.99447824927019 -0.5 L 25 -0.5 Z M 133.15072824927017 0.5 L 199.14520649854038 0.5 L 199.14520649854038 3.5 L 206.14520649854038 0 L 199.14520649854038 -3.5 L 199.14520649854038 -0.5 L 133.15072824927017 -0.5 Z"/><text text-anchor="middle" pointer-events="none" font-size="8px" fill="#000000" x="112.07260324927019" y="3" font-family="sans-serif">PART_OF</text></g><g class="relationship" transform="translate(-43.47870909404736 52.82693729737757) rotate(405.6286047107139)"><path class="outline" fill="#A5ABB6" stroke="none" d="M 25 0.5 L 78.00829291607296 0.5 L 78.00829291607296 -0.5 L 25 -0.5 Z M 120.16454291607296 0.5 L 173.17283583214592 0.5 L 173.17283583214592 3.5 L 180.17283583214592 0 L 173.17283583214592 -3.5 L 173.17283583214592 -0.5 L 120.16454291607296 -0.5 Z"/><text text-anchor="middle" pointer-events="none" font-size="8px" fill="#000000" x="99.08641791607296" y="3" font-family="sans-serif">PART_OF</text></g><g class="relationship" transform="translate(-47.97981233042303 112.4840835060333) rotate(390.45344493768397)"><path class="outline" fill="#A5ABB6" stroke="none" d="M 25 0.5 L 61.25292355498904 0.5 L 61.25292355498904 -0.5 L 25 -0.5 Z M 103.40917355498904 0.5 L 139.66209710997808 0.5 L 139.66209710997808 3.5 L 146.66209710997808 0 L 139.66209710997808 -3.5 L 139.66209710997808 -0.5 L 103.40917355498904 -0.5 Z"/><text text-anchor="middle" pointer-events="none" font-size="8px" fill="#000000" x="82.33104855498904" y="3" font-family="sans-serif">PART_OF</text></g><g class="relationship" transform="translate(5.854581224212533 86.91380561102923) rotate(410.09461798870154)"><path class="outline" fill="#A5ABB6" stroke="none" d="M 25 0.5 L 48.79851995572271 0.5 L 48.79851995572271 -0.5 L 25 -0.5 Z M 90.95476995572271 0.5 L 114.75328991144542 0.5 L 114.75328991144542 3.5 L 121.75328991144542 0 L 114.75328991144542 -3.5 L 114.75328991144542 -0.5 L 90.95476995572271 -0.5 Z"/><text text-anchor="middle" pointer-events="none" font-size="8px" fill="#000000" x="69.87664495572271" y="3" font-family="sans-serif">PART_OF</text></g><g class="relationship" transform="translate(-39.21575752610778 -6.364404290972506) rotate(415.9300609995506)"><path class="outline" fill="#A5ABB6" stroke="none" d="M 25 0.5 L 99.67629134243053 0.5 L 99.67629134243053 -0.5 L 25 -0.5 Z M 141.83254134243055 0.5 L 216.50883268486106 0.5 L 216.50883268486106 3.5 L 223.50883268486106 0 L 216.50883268486106 -3.5 L 216.50883268486106 -0.5 L 141.83254134243055 -0.5 Z"/><text text-anchor="middle" pointer-events="none" font-size="8px" fill="#000000" x="120.75441634243053" y="3" font-family="sans-serif">PART_OF</text></g><g class="relationship" transform="translate(-101.76925618203197 138.60773300370192) rotate(376.7905030991392)"><path class="outline" fill="#A5ABB6" stroke="none" d="M 25 0.5 L 80.79900496121188 0.5 L 80.79900496121188 -0.5 L 25 -0.5 Z M 122.95525496121188 0.5 L 178.75425992242376 0.5 L 178.75425992242376 3.5 L 185.75425992242376 0 L 178.75425992242376 -3.5 L 178.75425992242376 -0.5 L 122.95525496121188 -0.5 Z"/><text text-anchor="middle" pointer-events="none" font-size="8px" fill="#000000" x="101.87712996121188" y="3" font-family="sans-serif">PART_OF</text></g><g class="relationship" transform="translate(14.64993394648259 -32.38193346320301) rotate(429.79169012869926)"><path class="outline" fill="#A5ABB6" stroke="none" d="M 25 0.5 L 98.96210210790993 0.5 L 98.96210210790993 -0.5 L 25 -0.5 Z M 141.1183521079099 0.5 L 215.08045421581986 0.5 L 215.08045421581986 3.5 L 222.08045421581986 0 L 215.08045421581986 -3.5 L 215.08045421581986 -0.5 L 141.1183521079099 -0.5 Z"/><text text-anchor="middle" pointer-events="none" font-size="8px" fill="#000000" x="120.04022710790993" y="3" font-family="sans-serif">PART_OF</text></g><g class="relationship" transform="translate(-34.79413033778509 -65.82544165754109) rotate(423.06695731989873)"><path class="outline" fill="#A5ABB6" stroke="none" d="M 25 0.5 L 124.21804093527865 0.5 L 124.21804093527865 -0.5 L 25 -0.5 Z M 166.37429093527865 0.5 L 265.5923318705573 0.5 L 265.5923318705573 3.5 L 272.5923318705573 0 L 265.5923318705573 -3.5 L 265.5923318705573 -0.5 L 166.37429093527865 -0.5 Z"/><text text-anchor="middle" pointer-events="none" font-size="8px" fill="#000000" x="145.29616593527865" y="3" font-family="sans-serif">PART_OF</text></g><g class="relationship" transform="translate(-92.92481654502413 19.423224969218136) rotate(403.02547636410577)"><path class="outline" fill="#A5ABB6" stroke="none" d="M 25 0.5 L 107.37229969616646 0.5 L 107.37229969616646 -0.5 L 25 -0.5 Z M 149.52854969616646 0.5 L 231.90084939233293 0.5 L 231.90084939233293 3.5 L 238.90084939233293 0 L 231.90084939233293 -3.5 L 231.90084939233293 -0.5 L 149.52854969616646 -0.5 Z"/><text text-anchor="middle" pointer-events="none" font-size="8px" fill="#000000" x="128.45042469616646" y="3" font-family="sans-serif">PART_OF</text></g><g class="relationship" transform="translate(63.2637293074402 2.4109835264271524) rotate(439.4409794199632)"><path class="outline" fill="#A5ABB6" stroke="none" d="M 25 0.5 L 75.65820494457124 0.5 L 75.65820494457124 -0.5 L 25 -0.5 Z M 117.81445494457124 0.5 L 168.47265988914248 0.5 L 168.47265988914248 3.5 L 175.47265988914248 0 L 168.47265988914248 -3.5 L 168.47265988914248 -0.5 L 117.81445494457124 -0.5 Z"/><text text-anchor="middle" pointer-events="none" font-size="8px" fill="#000000" x="96.73632994457124" y="3" font-family="sans-serif">PART_OF</text></g><g class="relationship" transform="translate(9.245653295952382 27.173407317261965) rotate(422.2253329499542)"><path class="outline" fill="#A5ABB6" stroke="none" d="M 25 0.5 L 72.79872733869263 0.5 L 72.79872733869263 -0.5 L 25 -0.5 Z M 114.95497733869263 0.5 L 162.75370467738526 0.5 L 162.75370467738526 3.5 L 169.75370467738526 0 L 162.75370467738526 -3.5 L 162.75370467738526 -0.5 L 114.95497733869263 -0.5 Z"/><text text-anchor="middle" pointer-events="none" font-size="8px" fill="#000000" x="93.87685233869263" y="3" font-family="sans-serif">PART_OF</text></g><g class="relationship" transform="translate(-155.65712722175905 164.88286212916907) rotate(367.70878370380126)"><path class="outline" fill="#A5ABB6" stroke="none" d="M 25 0.5 L 104.41620586519602 0.5 L 104.41620586519602 -0.5 L 25 -0.5 Z M 146.57245586519602 0.5 L 225.98866173039204 0.5 L 225.98866173039204 3.5 L 232.98866173039204 0 L 225.98866173039204 -3.5 L 225.98866173039204 -0.5 L 146.57245586519602 -0.5 Z"/><text text-anchor="middle" pointer-events="none" font-size="8px" fill="#000000" x="125.49433086519602" y="3" font-family="sans-serif">PART_OF</text></g><g class="relationship" transform="translate(-56.298082443370156 231.2614290903549) rotate(348.5094157882253)"><path class="outline" fill="#A5ABB6" stroke="none" d="M 25 0.5 L 55.1692567229895 0.5 L 55.1692567229895 -0.5 L 25 -0.5 Z M 97.3255067229895 0.5 L 127.494763445979 0.5 L 127.494763445979 3.5 L 134.494763445979 0 L 127.494763445979 -3.5 L 127.494763445979 -0.5 L 97.3255067229895 -0.5 Z"/><text text-anchor="middle" pointer-events="none" font-size="8px" fill="#000000" x="76.2473817229895" y="3" font-family="sans-serif">PART_OF</text></g><g class="relationship" transform="translate(-146.881347842163 45.48827302128527) rotate(391.9552656930233)"><path class="outline" fill="#A5ABB6" stroke="none" d="M 25 0.5 L 120.90951655775359 0.5 L 120.90951655775359 -0.5 L 25 -0.5 Z M 163.0657665577536 0.5 L 258.9752831155072 0.5 L 258.9752831155072 3.5 L 265.9752831155072 0 L 258.9752831155072 -3.5 L 258.9752831155072 -0.5 L 163.0657665577536 -0.5 Z"/><text text-anchor="middle" pointer-events="none" font-size="8px" fill="#000000" x="141.9876415577536" y="3" font-family="sans-serif">PART_OF</text></g><g class="relationship" transform="translate(-151.37941658628213 105.24441556054427) rotate(380.5515042237672)"><path class="outline" fill="#A5ABB6" stroke="none" d="M 25 0.5 L 109.65455322652869 0.5 L 109.65455322652869 -0.5 L 25 -0.5 Z M 151.8108032265287 0.5 L 236.46535645305738 0.5 L 236.46535645305738 3.5 L 243.46535645305738 0 L 236.46535645305738 -3.5 L 236.46535645305738 -0.5 L 151.8108032265287 -0.5 Z"/><text text-anchor="middle" pointer-events="none" font-size="8px" fill="#000000" x="130.7326782265287" y="3" font-family="sans-serif">PART_OF</text></g><g class="relationship" transform="translate(100 199.4889726034186) rotate(342.4513592305432)"><path class="outline" fill="#A5ABB6" stroke="none" d="M 25 0.5 L 53.96733265218758 0.5 L 53.96733265218758 -0.5 L 25 -0.5 Z M 118.20952015218758 0.5 L 147.17685280437516 0.5 L 147.17685280437516 3.5 L 154.17685280437516 0 L 147.17685280437516 -3.5 L 147.17685280437516 -0.5 L 118.20952015218758 -0.5 Z"/><text text-anchor="middle" pointer-events="none" font-size="8px" fill="#000000" x="86.08842640218758" y="3" font-family="sans-serif">SUBCLASS_OF</text></g><g class="relationship" transform="translate(63.2637293074402 2.4109835264271524) rotate(190.01981045348487)"><path class="outline" fill="#A5ABB6" stroke="none" d="M 25 0.5 L 107.10135581205807 0.5 L 107.10135581205807 -0.5 L 25 -0.5 Z M 158.89432456205807 0.5 L 240.99568037411615 0.5 L 240.99568037411615 3.5 L 247.99568037411615 0 L 240.99568037411615 -3.5 L 240.99568037411615 -0.5 L 158.89432456205807 -0.5 Z"/><text text-anchor="middle" pointer-events="none" font-size="8px" fill="#000000" x="132.99784018705807" y="3" transform="rotate(180 132.99784018705807 0)" font-family="sans-serif">SPOKEN_IN</text></g><g class="relationship" transform="translate(-106.23169001750152 198.26867387743536) rotate(247.79500388905365)"><path class="outline" fill="#A5ABB6" stroke="none" d="M 25 0.5 L 102.02820463035567 0.5 L 102.02820463035567 -0.5 L 25 -0.5 Z M 153.82117338035567 0.5 L 230.84937801071135 0.5 L 230.84937801071135 3.5 L 237.84937801071135 0 L 230.84937801071135 -3.5 L 230.84937801071135 -0.5 L 153.82117338035567 -0.5 Z"/><text text-anchor="middle" pointer-events="none" font-size="8px" fill="#000000" x="127.92468900535567" y="3" transform="rotate(180 127.92468900535567 0)" font-family="sans-serif">SPOKEN_IN</text></g><g class="relationship" transform="translate(-52.31114080642014 172.27703451333878) rotate(234.81348359025168)"><path class="outline" fill="#A5ABB6" stroke="none" d="M 25 0.5 L 103.58368529324741 0.5 L 103.58368529324741 -0.5 L 25 -0.5 Z M 155.3766540432474 0.5 L 233.96033933649483 0.5 L 233.96033933649483 3.5 L 240.96033933649483 0 L 233.96033933649483 -3.5 L 233.96033933649483 -0.5 L 155.3766540432474 -0.5 Z"/><text text-anchor="middle" pointer-events="none" font-size="8px" fill="#000000" x="129.4801696682474" y="3" transform="rotate(180 129.4801696682474 0)" font-family="sans-serif">SPOKEN_IN</text></g><g class="relationship" transform="translate(1.573171015069269 146.11658569656083) rotate(222.7088532789934)"><path class="outline" fill="#A5ABB6" stroke="none" d="M 25 0.5 L 111.55243743214251 0.5 L 111.55243743214251 -0.5 L 25 -0.5 Z M 163.3454061821425 0.5 L 249.89784361428502 0.5 L 249.89784361428502 3.5 L 256.897843614285 0 L 249.89784361428502 -3.5 L 249.89784361428502 -0.5 L 163.3454061821425 -0.5 Z"/><text text-anchor="middle" pointer-events="none" font-size="8px" fill="#000000" x="137.4489218071425" y="3" transform="rotate(180 137.4489218071425 0)" font-family="sans-serif">SPOKEN_IN</text></g><g class="relationship" transform="translate(-97.4759533575968 79.35840058796066) rotate(229.02274768276152)"><path class="outline" fill="#A5ABB6" stroke="none" d="M 25 0.5 L 53.02107826183118 0.5 L 53.02107826183118 -0.5 L 25 -0.5 Z M 104.81404701183118 0.5 L 132.83512527366236 0.5 L 132.83512527366236 3.5 L 139.83512527366236 0 L 132.83512527366236 -3.5 L 132.83512527366236 -0.5 L 104.81404701183118 -0.5 Z"/><text text-anchor="middle" pointer-events="none" font-size="8px" fill="#000000" x="78.91756263683118" y="3" transform="rotate(180 78.91756263683118 0)" font-family="sans-serif">SPOKEN_IN</text></g><g class="relationship" transform="translate(-43.47870909404736 52.82693729737757) rotate(211.13511035159945)"><path class="outline" fill="#A5ABB6" stroke="none" d="M 25 0.5 L 65.28740034772463 0.5 L 65.28740034772463 -0.5 L 25 -0.5 Z M 117.08036909772463 0.5 L 157.36776944544926 0.5 L 157.36776944544926 3.5 L 164.36776944544926 0 L 157.36776944544926 -3.5 L 157.36776944544926 -0.5 L 117.08036909772463 -0.5 Z"/><text text-anchor="middle" pointer-events="none" font-size="8px" fill="#000000" x="91.18388472272463" y="3" transform="rotate(180 91.18388472272463 0)" font-family="sans-serif">SPOKEN_IN</text></g><g class="relationship" transform="translate(-47.97981233042303 112.4840835060333) rotate(224.99689882081537)"><path class="outline" fill="#A5ABB6" stroke="none" d="M 25 0.5 L 82.02925035568698 0.5 L 82.02925035568698 -0.5 L 25 -0.5 Z M 133.822219105687 0.5 L 190.85146946137397 0.5 L 190.85146946137397 3.5 L 197.85146946137397 0 L 190.85146946137397 -3.5 L 190.85146946137397 -0.5 L 133.822219105687 -0.5 Z"/><text text-anchor="middle" pointer-events="none" font-size="8px" fill="#000000" x="107.92573473068698" y="3" transform="rotate(180 107.92573473068698 0)" font-family="sans-serif">SPOKEN_IN</text></g><g class="relationship" transform="translate(5.854581224212533 86.91380561102923) rotate(211.97844047822434)"><path class="outline" fill="#A5ABB6" stroke="none" d="M 25 0.5 L 95.22676739472845 0.5 L 95.22676739472845 -0.5 L 25 -0.5 Z M 147.01973614472845 0.5 L 217.2465035394569 0.5 L 217.2465035394569 3.5 L 224.2465035394569 0 L 217.2465035394569 -3.5 L 217.2465035394569 -0.5 L 147.01973614472845 -0.5 Z"/><text text-anchor="middle" pointer-events="none" font-size="8px" fill="#000000" x="121.12325176972845" y="3" transform="rotate(180 121.12325176972845 0)" font-family="sans-serif">SPOKEN_IN</text></g><g class="relationship" transform="translate(-39.21575752610778 -6.364404290972506) rotate(193.10371134652166)"><path class="outline" fill="#A5ABB6" stroke="none" d="M 25 0.5 L 56.00340354441501 0.5 L 56.00340354441501 -0.5 L 25 -0.5 Z M 107.79637229441501 0.5 L 138.79977583883002 0.5 L 138.79977583883002 3.5 L 145.79977583883002 0 L 138.79977583883002 -3.5 L 138.79977583883002 -0.5 L 107.79637229441501 -0.5 Z"/><text text-anchor="middle" pointer-events="none" font-size="8px" fill="#000000" x="81.89988791941501" y="3" transform="rotate(180 81.89988791941501 0)" font-family="sans-serif">SPOKEN_IN</text></g><g class="relationship" transform="translate(-101.76925618203197 138.60773300370192) rotate(240.53089222647668)"><path class="outline" fill="#A5ABB6" stroke="none" d="M 25 0.5 L 76.09998919422193 0.5 L 76.09998919422193 -0.5 L 25 -0.5 Z M 127.89295794422193 0.5 L 178.99294713844387 0.5 L 178.99294713844387 3.5 L 185.99294713844387 0 L 178.99294713844387 -3.5 L 178.99294713844387 -0.5 L 127.89295794422193 -0.5 Z"/><text text-anchor="middle" pointer-events="none" font-size="8px" fill="#000000" x="101.99647356922193" y="3" transform="rotate(180 101.99647356922193 0)" font-family="sans-serif">SPOKEN_IN</text></g><g class="relationship" transform="translate(14.64993394648259 -32.38193346320301) rotate(183.30195664756195)"><path class="outline" fill="#A5ABB6" stroke="none" d="M 25 0.5 L 80.89564729750916 0.5 L 80.89564729750916 -0.5 L 25 -0.5 Z M 132.68861604750916 0.5 L 188.58426334501831 0.5 L 188.58426334501831 3.5 L 195.58426334501831 0 L 188.58426334501831 -3.5 L 188.58426334501831 -0.5 L 132.68861604750916 -0.5 Z"/><text text-anchor="middle" pointer-events="none" font-size="8px" fill="#000000" x="106.79213167250916" y="3" transform="rotate(180 106.79213167250916 0)" font-family="sans-serif">SPOKEN_IN</text></g><g class="relationship" transform="translate(-34.79413033778509 -65.82544165754109) rotate(533.0760793138347)"><path class="outline" fill="#A5ABB6" stroke="none" d="M 25 0.5 L 56.617807419714055 0.5 L 56.617807419714055 -0.5 L 25 -0.5 Z M 108.41077616971405 0.5 L 140.0285835894281 0.5 L 140.0285835894281 3.5 L 147.0285835894281 0 L 140.0285835894281 -3.5 L 140.0285835894281 -0.5 L 108.41077616971405 -0.5 Z"/><text text-anchor="middle" pointer-events="none" font-size="8px" fill="#000000" x="82.51429179471405" y="3" transform="rotate(180 82.51429179471405 0)" font-family="sans-serif">SPOKEN_IN</text></g><g class="relationship" transform="translate(-92.92481654502413 19.423224969218136) rotate(209.79960375883337)"><path class="outline" fill="#A5ABB6" stroke="none" d="M 25 0.5 L 35.50749593595927 0.5 L 35.50749593595927 -0.5 L 25 -0.5 Z M 87.30046468595927 0.5 L 97.80796062191854 0.5 L 97.80796062191854 3.5 L 104.80796062191854 0 L 97.80796062191854 -3.5 L 97.80796062191854 -0.5 L 87.30046468595927 -0.5 Z"/><text text-anchor="middle" pointer-events="none" font-size="8px" fill="#000000" x="61.40398031095927" y="3" transform="rotate(180 61.40398031095927 0)" font-family="sans-serif">SPOKEN_IN</text></g><g class="relationship" transform="translate(9.245653295952382 27.173407317261965) rotate(198.5922743129899)"><path class="outline" fill="#A5ABB6" stroke="none" d="M 25 0.5 L 83.92446620576283 0.5 L 83.92446620576283 -0.5 L 25 -0.5 Z M 135.71743495576283 0.5 L 194.64190116152565 0.5 L 194.64190116152565 3.5 L 201.64190116152565 0 L 194.64190116152565 -3.5 L 194.64190116152565 -0.5 L 135.71743495576283 -0.5 Z"/><text text-anchor="middle" pointer-events="none" font-size="8px" fill="#000000" x="109.82095058076283" y="3" transform="rotate(180 109.82095058076283 0)" font-family="sans-serif">SPOKEN_IN</text></g><g class="relationship" transform="translate(-155.65712722175905 164.88286212916907) rotate(256.6286449351986)"><path class="outline" fill="#A5ABB6" stroke="none" d="M 25 0.5 L 78.51380619297852 0.5 L 78.51380619297852 -0.5 L 25 -0.5 Z M 130.3067749429785 0.5 L 183.82058113595704 0.5 L 183.82058113595704 3.5 L 190.82058113595704 0 L 183.82058113595704 -3.5 L 183.82058113595704 -0.5 L 130.3067749429785 -0.5 Z"/><text text-anchor="middle" pointer-events="none" font-size="8px" fill="#000000" x="104.41029056797852" y="3" transform="rotate(180 104.41029056797852 0)" font-family="sans-serif">SPOKEN_IN</text></g><g class="relationship" transform="translate(-56.298082443370156 231.2614290903549) rotate(241.62424439040848)"><path class="outline" fill="#A5ABB6" stroke="none" d="M 25 0.5 L 127.64657945300425 0.5 L 127.64657945300425 -0.5 L 25 -0.5 Z M 179.43954820300425 0.5 L 282.0861276560085 0.5 L 282.0861276560085 3.5 L 289.0861276560085 0 L 282.0861276560085 -3.5 L 282.0861276560085 -0.5 L 179.43954820300425 -0.5 Z"/><text text-anchor="middle" pointer-events="none" font-size="8px" fill="#000000" x="153.54306382800425" y="3" transform="rotate(180 153.54306382800425 0)" font-family="sans-serif">SPOKEN_IN</text></g><g class="relationship" transform="translate(-146.881347842163 45.48827302128527) rotate(237.05948464950222)"><path class="outline" fill="#A5ABB6" stroke="none" d="M 25 0.5 L 26.791189447140162 0.5 L 26.791189447140162 -0.5 L 25 -0.5 Z M 74.13493944714017 0.5 L 75.92612889428032 0.5 L 75.92612889428032 3.5 L 82.92612889428032 0 L 75.92612889428032 -3.5 L 75.92612889428032 -0.5 L 74.13493944714017 -0.5 Z"/><text text-anchor="middle" pointer-events="none" font-size="8px" fill="#000000" x="50.46306444714016" y="3" transform="rotate(180 50.46306444714016 0)" font-family="sans-serif">SPOKEN…</text></g><g class="relationship" transform="translate(-151.37941658628213 105.24441556054427) rotate(250.1777322229898)"><path class="outline" fill="#A5ABB6" stroke="none" d="M 25 0.5 L 50.50345713784154 0.5 L 50.50345713784154 -0.5 L 25 -0.5 Z M 102.29642588784154 0.5 L 127.79988302568307 0.5 L 127.79988302568307 3.5 L 134.79988302568307 0 L 127.79988302568307 -3.5 L 127.79988302568307 -0.5 L 102.29642588784154 -0.5 Z"/><text text-anchor="middle" pointer-events="none" font-size="8px" fill="#000000" x="76.39994151284154" y="3" transform="rotate(180 76.39994151284154 0)" font-family="sans-serif">SPOKEN_IN</text></g><g class="relationship" transform="translate(155.47418846885876 77.49031229305484) rotate(312.2645316914695)"><path class="outline" fill="#A5ABB6" stroke="none" d="M 25 0.5 L 25.245783333649918 0.5 L 25.245783333649918 -0.5 L 25 -0.5 Z M 77.03875208364991 0.5 L 77.28453541729984 0.5 L 77.28453541729984 3.5 L 84.28453541729984 0 L 77.28453541729984 -3.5 L 77.28453541729984 -0.5 L 77.03875208364991 -0.5 Z"/><text text-anchor="middle" pointer-events="none" font-size="8px" fill="#000000" x="51.14226770864992" y="3" font-family="sans-serif">SPOKEN_IN</text></g></g><g class="layer nodes"><g class="node" transform="translate(62.38771057128906,64.22245620109764)"><circle class="outline" cx="0" cy="0" r="25" fill="#F79767" stroke="#f36924" stroke-width="2px"/><text text-anchor="middle" pointer-events="none" font-family="sans-serif" dy="1.5625" font-size="25" fill="#FFFFFF"/><text text-anchor="middle" pointer-events="none" x="0" y="5" font-size="10px" fill="#FFFFFF" font-family="sans-serif"> English</text></g><g class="node" transform="translate(100,199.4889726034186)"><circle class="outline" cx="0" cy="0" r="25" fill="#57C7E3" stroke="#23b3d7" stroke-width="2px"/><text text-anchor="middle" pointer-events="none" font-family="sans-serif" dy="1.5625" font-size="25" fill="#2A2C34"/><text text-anchor="middle" pointer-events="none" x="0" y="5" font-size="10px" fill="#2A2C34" font-family="sans-serif"> Germanic</text></g><g class="node" transform="translate(-205.5681264830859,-45.087172386706655)"><circle class="outline" cx="0" cy="0" r="25" fill="#D9C8AE" stroke="#c0a378" stroke-width="2px"/><text text-anchor="middle" pointer-events="none" font-family="sans-serif" dy="1.5625" font-size="25" fill="#2A2C34"/><text text-anchor="middle" pointer-events="none" x="0" y="5" font-size="10px" fill="#2A2C34" font-family="sans-serif"> Eurasia</text></g><g class="node" transform="translate(155.47418846885876,77.49031229305484)"><circle class="outline" cx="0" cy="0" r="25" fill="#F79767" stroke="#f36924" stroke-width="2px"/><text text-anchor="middle" pointer-events="none" font-family="sans-serif" dy="1.5625" font-size="25" fill="#FFFFFF"/><text text-anchor="middle" pointer-events="none" x="0" y="5" font-size="10px" fill="#FFFFFF" font-family="sans-serif"> Afrikaans</text></g><g class="node" transform="translate(-106.23169001750152,198.26867387743536)"><circle class="outline" cx="0" cy="0" r="25" fill="#F79767" stroke="#f36924" stroke-width="2px"/><text text-anchor="middle" pointer-events="none" font-family="sans-serif" dy="1.5625" font-size="25" fill="#FFFFFF"/><text text-anchor="middle" pointer-events="none" x="0" y="5" font-size="10px" fill="#FFFFFF" font-family="sans-serif"> Alsatian</text></g><g class="node" transform="translate(-52.31114080642014,172.27703451333878)"><circle class="outline" cx="0" cy="0" r="25" fill="#F79767" stroke="#f36924" stroke-width="2px"/><text text-anchor="middle" pointer-events="none" font-family="sans-serif" dy="1.5625" font-size="25" fill="#FFFFFF"/><text text-anchor="middle" pointer-events="none" font-family="sans-serif" dy="1.5625" font-size="25" fill="#FFFFFF"/><text text-anchor="middle" pointer-events="none" x="0" y="0" font-size="10px" fill="#FFFFFF" font-family="sans-serif"> Dutch</text><text text-anchor="middle" pointer-events="none" x="0" y="10" font-size="10px" fill="#FFFFFF" font-family="sans-serif"> (Braban…</text></g><g class="node" transform="translate(1.573171015069269,146.11658569656083)"><circle class="outline" cx="0" cy="0" r="25" fill="#F79767" stroke="#f36924" stroke-width="2px"/><text text-anchor="middle" pointer-events="none" font-family="sans-serif" dy="1.5625" font-size="25" fill="#FFFFFF"/><text text-anchor="middle" pointer-events="none" x="0" y="5" font-size="10px" fill="#FFFFFF" font-family="sans-serif"> Danish</text></g><g class="node" transform="translate(-97.4759533575968,79.35840058796066)"><circle class="outline" cx="0" cy="0" r="25" fill="#F79767" stroke="#f36924" stroke-width="2px"/><text text-anchor="middle" pointer-events="none" font-family="sans-serif" dy="1.5625" font-size="25" fill="#FFFFFF"/><text text-anchor="middle" pointer-events="none" font-family="sans-serif" dy="1.5625" font-size="25" fill="#FFFFFF"/><text text-anchor="middle" pointer-events="none" x="0" y="0" font-size="10px" fill="#FFFFFF" font-family="sans-serif"> Dutch</text><text text-anchor="middle" pointer-events="none" x="0" y="10" font-size="10px" fill="#FFFFFF" font-family="sans-serif"> (Zeeuws)</text></g><g class="node" transform="translate(-43.47870909404736,52.82693729737757)"><circle class="outline" cx="0" cy="0" r="25" fill="#F79767" stroke="#f36924" stroke-width="2px"/><text text-anchor="middle" pointer-events="none" font-family="sans-serif" dy="1.5625" font-size="25" fill="#FFFFFF"/><text text-anchor="middle" pointer-events="none" x="0" y="5" font-size="10px" fill="#FFFFFF" font-family="sans-serif"> Faroese</text></g><g class="node" transform="translate(-47.97981233042303,112.4840835060333)"><circle class="outline" cx="0" cy="0" r="25" fill="#F79767" stroke="#f36924" stroke-width="2px"/><text text-anchor="middle" pointer-events="none" font-family="sans-serif" dy="1.5625" font-size="25" fill="#FFFFFF"/><text text-anchor="middle" pointer-events="none" font-family="sans-serif" dy="1.5625" font-size="25" fill="#FFFFFF"/><text text-anchor="middle" pointer-events="none" x="0" y="0" font-size="10px" fill="#FFFFFF" font-family="sans-serif"> Frisian</text><text text-anchor="middle" pointer-events="none" x="0" y="10" font-size="10px" fill="#FFFFFF" font-family="sans-serif"> (Eastern)</text></g><g class="node" transform="translate(5.854581224212533,86.91380561102923)"><circle class="outline" cx="0" cy="0" r="25" fill="#F79767" stroke="#f36924" stroke-width="2px"/><text text-anchor="middle" pointer-events="none" font-family="sans-serif" dy="1.5625" font-size="25" fill="#FFFFFF"/><text text-anchor="middle" pointer-events="none" font-family="sans-serif" dy="1.5625" font-size="25" fill="#FFFFFF"/><text text-anchor="middle" pointer-events="none" x="0" y="0" font-size="10px" fill="#FFFFFF" font-family="sans-serif"> Frisian</text><text text-anchor="middle" pointer-events="none" x="0" y="10" font-size="10px" fill="#FFFFFF" font-family="sans-serif"> (North)</text></g><g class="node" transform="translate(-39.21575752610778,-6.364404290972506)"><circle class="outline" cx="0" cy="0" r="25" fill="#F79767" stroke="#f36924" stroke-width="2px"/><text text-anchor="middle" pointer-events="none" font-family="sans-serif" dy="1.5625" font-size="25" fill="#FFFFFF"/><text text-anchor="middle" pointer-events="none" font-family="sans-serif" dy="1.5625" font-size="25" fill="#FFFFFF"/><text text-anchor="middle" pointer-events="none" x="0" y="0" font-size="10px" fill="#FFFFFF" font-family="sans-serif"> Frisian</text><text text-anchor="middle" pointer-events="none" x="0" y="10" font-size="10px" fill="#FFFFFF" font-family="sans-serif"> (Wester…</text></g><g class="node" transform="translate(-101.76925618203197,138.60773300370192)"><circle class="outline" cx="0" cy="0" r="25" fill="#F79767" stroke="#f36924" stroke-width="2px"/><text text-anchor="middle" pointer-events="none" font-family="sans-serif" dy="1.5625" font-size="25" fill="#FFFFFF"/><text text-anchor="middle" pointer-events="none" font-family="sans-serif" dy="1.5625" font-size="25" fill="#FFFFFF"/><text text-anchor="middle" pointer-events="none" font-family="sans-serif" dy="1.5625" font-size="25" fill="#FFFFFF"/><text text-anchor="middle" pointer-events="none" x="0" y="-5" font-size="10px" fill="#FFFFFF" font-family="sans-serif"> German</text><text text-anchor="middle" pointer-events="none" x="0" y="5" font-size="10px" fill="#FFFFFF" font-family="sans-serif"> (Upper</text><text text-anchor="middle" pointer-events="none" x="0" y="15" font-size="10px" fill="#FFFFFF" font-family="sans-serif"> Austri…</text></g><g class="node" transform="translate(14.64993394648259,-32.38193346320301)"><circle class="outline" cx="0" cy="0" r="25" fill="#F79767" stroke="#f36924" stroke-width="2px"/><text text-anchor="middle" pointer-events="none" font-family="sans-serif" dy="1.5625" font-size="25" fill="#FFFFFF"/><text text-anchor="middle" pointer-events="none" font-family="sans-serif" dy="1.5625" font-size="25" fill="#FFFFFF"/><text text-anchor="middle" pointer-events="none" x="0" y="0" font-size="10px" fill="#FFFFFF" font-family="sans-serif"> German</text><text text-anchor="middle" pointer-events="none" x="0" y="10" font-size="10px" fill="#FFFFFF" font-family="sans-serif"> (Berlin)</text></g><g class="node" transform="translate(-34.79413033778509,-65.82544165754109)"><circle class="outline" cx="0" cy="0" r="25" fill="#F79767" stroke="#f36924" stroke-width="2px"/><text text-anchor="middle" pointer-events="none" font-family="sans-serif" dy="1.5625" font-size="25" fill="#FFFFFF"/><text text-anchor="middle" pointer-events="none" font-family="sans-serif" dy="1.5625" font-size="25" fill="#FFFFFF"/><text text-anchor="middle" pointer-events="none" x="0" y="0" font-size="10px" fill="#FFFFFF" font-family="sans-serif"> German</text><text text-anchor="middle" pointer-events="none" x="0" y="10" font-size="10px" fill="#FFFFFF" font-family="sans-serif"> (Ripuari…</text></g><g class="node" transform="translate(-92.92481654502413,19.423224969218136)"><circle class="outline" cx="0" cy="0" r="25" fill="#F79767" stroke="#f36924" stroke-width="2px"/><text text-anchor="middle" pointer-events="none" font-family="sans-serif" dy="1.5625" font-size="25" fill="#FFFFFF"/><text text-anchor="middle" pointer-events="none" font-family="sans-serif" dy="1.5625" font-size="25" fill="#FFFFFF"/><text text-anchor="middle" pointer-events="none" x="0" y="0" font-size="10px" fill="#FFFFFF" font-family="sans-serif"> German</text><text text-anchor="middle" pointer-events="none" x="0" y="10" font-size="10px" fill="#FFFFFF" font-family="sans-serif"> (Westp…</text></g><g class="node" transform="translate(63.2637293074402,2.4109835264271524)"><circle class="outline" cx="0" cy="0" r="25" fill="#F79767" stroke="#f36924" stroke-width="2px"/><text text-anchor="middle" pointer-events="none" font-family="sans-serif" dy="1.5625" font-size="25" fill="#FFFFFF"/><text text-anchor="middle" pointer-events="none" x="0" y="5" font-size="10px" fill="#FFFFFF" font-family="sans-serif"> Icelandic</text></g><g class="node" transform="translate(9.245653295952382,27.173407317261965)"><circle class="outline" cx="0" cy="0" r="25" fill="#F79767" stroke="#f36924" stroke-width="2px"/><text text-anchor="middle" pointer-events="none" font-family="sans-serif" dy="1.5625" font-size="25" fill="#FFFFFF"/><text text-anchor="middle" pointer-events="none" font-family="sans-serif" dy="1.5625" font-size="25" fill="#FFFFFF"/><text text-anchor="middle" pointer-events="none" x="0" y="0" font-size="10px" fill="#FFFFFF" font-family="sans-serif"> Low</text><text text-anchor="middle" pointer-events="none" x="0" y="10" font-size="10px" fill="#FFFFFF" font-family="sans-serif"> German</text></g><g class="node" transform="translate(-155.65712722175905,164.88286212916907)"><circle class="outline" cx="0" cy="0" r="25" fill="#F79767" stroke="#f36924" stroke-width="2px"/><text text-anchor="middle" pointer-events="none" font-family="sans-serif" dy="1.5625" font-size="25" fill="#FFFFFF"/><text text-anchor="middle" pointer-events="none" x="0" y="5" font-size="10px" fill="#FFFFFF" font-family="sans-serif"> Luxemb…</text></g><g class="node" transform="translate(-56.298082443370156,231.2614290903549)"><circle class="outline" cx="0" cy="0" r="25" fill="#F79767" stroke="#f36924" stroke-width="2px"/><text text-anchor="middle" pointer-events="none" font-family="sans-serif" dy="1.5625" font-size="25" fill="#FFFFFF"/><text text-anchor="middle" pointer-events="none" x="0" y="5" font-size="10px" fill="#FFFFFF" font-family="sans-serif"> Norwegi…</text></g><g class="node" transform="translate(-146.881347842163,45.48827302128527)"><circle class="outline" cx="0" cy="0" r="25" fill="#F79767" stroke="#f36924" stroke-width="2px"/><text text-anchor="middle" pointer-events="none" font-family="sans-serif" dy="1.5625" font-size="25" fill="#FFFFFF"/><text text-anchor="middle" pointer-events="none" x="0" y="5" font-size="10px" fill="#FFFFFF" font-family="sans-serif"> Swedish</text></g><g class="node" transform="translate(-151.37941658628213,105.24441556054427)"><circle class="outline" cx="0" cy="0" r="25" fill="#F79767" stroke="#f36924" stroke-width="2px"/><text text-anchor="middle" pointer-events="none" font-family="sans-serif" dy="1.5625" font-size="25" fill="#FFFFFF"/><text text-anchor="middle" pointer-events="none" font-family="sans-serif" dy="1.5625" font-size="25" fill="#FFFFFF"/><text text-anchor="middle" pointer-events="none" x="0" y="0" font-size="10px" fill="#FFFFFF" font-family="sans-serif"> Yiddish</text><text text-anchor="middle" pointer-events="none" x="0" y="10" font-size="10px" fill="#FFFFFF" font-family="sans-serif"> (Bessar…</text></g><g class="node" transform="translate(270.8381995648704,145.4644027271648)"><circle class="outline" cx="0" cy="0" r="25" fill="#F16667" stroke="#eb2728" stroke-width="2px"/><text text-anchor="middle" pointer-events="none" font-family="sans-serif" dy="1.5625" font-size="25" fill="#FFFFFF"/><text text-anchor="middle" pointer-events="none" x="0" y="5" font-size="10px" fill="#FFFFFF" font-family="sans-serif"> Indo-Eur…</text></g><g class="node" transform="translate(228.97399719628663,-3.3854430258698684)"><circle class="outline" cx="0" cy="0" r="25" fill="#D9C8AE" stroke="#c0a378" stroke-width="2px"/><text text-anchor="middle" pointer-events="none" font-family="sans-serif" dy="1.5625" font-size="25" fill="#2A2C34"/><text text-anchor="middle" pointer-events="none" x="0" y="5" font-size="10px" fill="#2A2C34" font-family="sans-serif"> Africa</text></g></g></svg>