<svg xmlns="http://www.w3.org/2000/svg" width="194.32228088378906" height="247.06393432617188" viewBox="7.386627197265625 20.06513214111328 194.32228088378906 247.06393432617188"><title>Neo4j Graph Visualization</title><desc>Created using Neo4j (http://www.neo4j.com/)</desc><g class="layer relationships"><g class="relationship" transform="translate(36.38662660357251 238.12905677422262) rotate(350.9935802347064)"><path class="outline" fill="#A5ABB6" stroke="none" d="M 25 0.5 L 44.433878398873944 0.5 L 44.433878398873944 -0.5 L 25 -0.5 Z M 86.59012839887394 0.5 L 106.02400679774789 0.5 L 106.02400679774789 3.5 L 113.02400679774789 0 L 106.02400679774789 -3.5 L 106.02400679774789 -0.5 L 86.59012839887394 -0.5 Z"/><text text-anchor="middle" pointer-events="none" font-size="8px" fill="#000000" x="65.51200339887394" y="3" font-family="sans-serif">PART_OF</text></g><g class="relationship" transform="translate(172.70890871838242 216.52207060041937) rotate(242.89540713339858)"><path class="outline" fill="#A5ABB6" stroke="none" d="M 25 0.5 L 25.871541467415383 0.5 L 25.871541467415383 -0.5 L 25 -0.5 Z M 82.55513521741538 0.5 L 83.42667668483077 0.5 L 83.42667668483077 3.5 L 90.42667668483077 0 L 83.42667668483077 -3.5 L 83.42667668483077 -0.5 L 82.55513521741538 -0.5 Z"/><text text-anchor="middle" pointer-events="none" font-size="8px" fill="#000000" x="54.21333834241538" y="3" transform="rotate(180 54.21333834241538 0)" font-family="sans-serif">SUBCLASS…</text></g><g class="relationship" transform="translate(120.11863731332622 113.77198036178756) rotate(305.7073811655081)"><path class="outline" fill="#A5ABB6" stroke="none" d="M 25 0.5 L 26.675740374226194 0.5 L 26.675740374226194 -0.5 L 25 -0.5 Z M 46.011677874226194 0.5 L 47.68741824845239 0.5 L 47.68741824845239 3.5 L 54.68741824845239 0 L 47.68741824845239 -3.5 L 47.68741824845239 -0.5 L 46.011677874226194 -0.5 Z"/><text text-anchor="middle" pointer-events="none" font-size="8px" fill="#000000" x="36.343709124226194" y="3" font-family="sans-serif">P…</text></g><g class="relationship" transform="translate(120.11863731332622 113.77198036178756) rotate(221.5008650389392)"><path class="outline" fill="#A5ABB6" stroke="none" d="M 25 0.5 L 27.09589514128014 0.5 L 27.09589514128014 -0.5 L 25 -0.5 Z M 52.20917639128014 0.5 L 54.30507153256028 0.5 L 54.30507153256028 3.5 L 61.30507153256028 0 L 54.30507153256028 -3.5 L 54.30507153256028 -0.5 L 52.20917639128014 -0.5 Z"/><text text-anchor="middle" pointer-events="none" font-size="8px" fill="#000000" x="39.65253576628014" y="3" transform="rotate(180 39.65253576628014 0)" font-family="sans-serif">PR…</text></g><g class="relationship" transform="translate(36.38662660357251 238.12905677422262) rotate(276.0040559780419)"><path class="outline" fill="#A5ABB6" stroke="none" d="M 25 0.5 L 61.876958189994966 0.5 L 61.876958189994966 -0.5 L 25 -0.5 Z M 113.66992693999497 0.5 L 150.54688512998993 0.5 L 150.54688512998993 3.5 L 157.54688512998993 0 L 150.54688512998993 -3.5 L 150.54688512998993 -0.5 L 113.66992693999497 -0.5 Z"/><text text-anchor="middle" pointer-events="none" font-size="8px" fill="#000000" x="87.77344256499497" y="3" font-family="sans-serif">SPOKEN_IN</text></g></g><g class="layer nodes"><g class="node" transform="translate(36.38662660357251,238.12905677422262)"><circle class="outline" cx="0" cy="0" r="25" fill="#F79767" stroke="#f36924" stroke-width="2px"/><text text-anchor="middle" pointer-events="none" font-family="sans-serif" dy="1.5625" font-size="25" fill="#FFFFFF"/><text text-anchor="middle" pointer-events="none" x="0" y="5" font-size="10px" fill="#FFFFFF" font-family="sans-serif"> Russian</text></g><g class="node" transform="translate(172.70890871838242,216.52207060041937)"><circle class="outline" cx="0" cy="0" r="25" fill="#57C7E3" stroke="#23b3d7" stroke-width="2px"/><text text-anchor="middle" pointer-events="none" font-family="sans-serif" dy="1.5625" font-size="25" fill="#2A2C34"/><text text-anchor="middle" pointer-events="none" x="0" y="5" font-size="10px" fill="#2A2C34" font-family="sans-serif"> Slavic</text></g><g class="node" transform="translate(120.11863731332622,113.77198036178756)"><circle class="outline" cx="0" cy="0" r="25" fill="#F16667" stroke="#eb2728" stroke-width="2px"/><text text-anchor="middle" pointer-events="none" font-family="sans-serif" dy="1.5625" font-size="25" fill="#FFFFFF"/><text text-anchor="middle" pointer-events="none" x="0" y="5" font-size="10px" fill="#FFFFFF" font-family="sans-serif"> Indo-Eur…</text></g><g class="node" transform="translate(166.62786617501516,49.065131745935275)"><circle class="outline" cx="0" cy="0" r="25" fill="#D9C8AE" stroke="#c0a378" stroke-width="2px"/><text text-anchor="middle" pointer-events="none" font-family="sans-serif" dy="1.5625" font-size="25" fill="#2A2C34"/><text text-anchor="middle" pointer-events="none" x="0" y="5" font-size="10px" fill="#2A2C34" font-family="sans-serif"> Africa</text></g><g class="node" transform="translate(55.48082366699428,56.583533807763985)"><circle class="outline" cx="0" cy="0" r="25" fill="#D9C8AE" stroke="#c0a378" stroke-width="2px"/><text text-anchor="middle" pointer-events="none" font-family="sans-serif" dy="1.5625" font-size="25" fill="#2A2C34"/><text text-anchor="middle" pointer-events="none" x="0" y="5" font-size="10px" fill="#2A2C34" font-family="sans-serif"> Eurasia</text></g></g></svg>